<svg version="1.1" id="Layer_1" xmlns="http://www.w3.org/2000/svg" xmlns:xlink="http://www.w3.org/1999/xlink" x="0px" y="0px"
	 width="100%" viewBox="0 0 1027 1027" enable-background="new 0 0 1027 1027" xml:space="preserve">
<path fill="#FEFEFE" opacity="1.000000" stroke="none" 
	d="
M1.000006,552.000000 
	C1.000000,527.312439 1.000000,502.624878 1.397029,477.445923 
	C2.127671,475.881805 2.636088,474.830170 2.768417,473.733185 
	C4.478644,459.556030 5.728187,445.310364 7.879673,431.201752 
	C15.176106,383.354736 29.635769,337.652496 50.472340,294.019775 
	C81.150208,229.778915 123.293472,174.169601 176.954254,127.314751 
	C206.296646,101.693932 238.094772,79.602158 272.457153,61.318600 
	C335.085449,27.995314 401.747589,8.246458 472.564117,2.770986 
	C473.747986,2.679453 474.856384,1.612031 476.000000,0.999999 
	C501.020905,1.000000 526.041809,1.000000 551.544922,1.399998 
	C552.929810,2.130965 553.809448,2.651428 554.738708,2.764506 
	C568.917419,4.489967 583.166809,5.746803 597.274719,7.922790 
	C644.268127,15.170982 689.216736,29.280203 732.167358,49.598114 
	C792.305664,78.046753 845.062012,116.605804 890.325439,165.461395 
	C920.260254,197.771912 945.756531,233.225800 966.448242,272.044434 
	C1002.761780,340.170532 1023.011475,412.790436 1026.288574,490.037781 
	C1026.345459,491.380310 1027.407227,492.680206 1028.000000,494.000000 
	C1028.000000,507.020905 1028.000000,520.041809 1027.599121,533.548462 
	C1026.877563,535.109436 1026.302734,536.177551 1026.272827,537.260742 
	C1025.551758,563.426025 1022.096924,589.267761 1017.019836,614.905701 
	C1005.395752,673.603760 983.967224,728.531616 952.913147,779.644226 
	C925.397339,824.933350 891.744263,865.103271 851.800598,900.030579 
	C822.206604,925.907837 790.196533,948.258362 755.523438,966.683044 
	C687.501587,1002.828674 615.038940,1023.023193 537.962341,1026.284180 
	C536.619751,1026.340820 535.319824,1027.405640 534.000000,1028.000000 
	C520.979126,1028.000000 507.958221,1028.000000 494.451355,1027.599365 
	C492.889801,1026.877930 491.821625,1026.304443 490.737671,1026.272949 
	C463.069153,1025.467896 435.772614,1021.683044 408.700287,1016.100281 
	C342.992584,1002.550293 282.434204,976.684082 226.903137,939.203613 
	C187.360794,912.514709 152.203796,880.845032 121.477425,844.249207 
	C86.393387,802.463318 58.490627,756.385254 38.079105,705.822998 
	C18.586229,657.536377 6.678033,607.418945 2.768562,555.440735 
	C2.679469,554.256165 1.611421,553.145264 1.000006,552.000000 
M950.850586,281.673065 
	C948.358093,277.154236 945.945618,272.589111 943.360718,268.123810 
	C916.957153,222.512726 884.331055,181.925552 845.152283,146.640274 
	C802.430603,108.164162 754.509460,77.960953 701.331604,56.067204 
	C644.398132,32.627270 585.080139,20.574287 523.621948,19.261618 
	C507.515961,18.917616 491.359619,20.050802 475.250458,20.940643 
	C451.139069,22.272516 427.378510,26.209831 403.859589,31.602419 
	C355.334412,42.728615 309.523529,60.753349 266.462616,85.760567 
	C214.651398,115.849449 169.674149,154.031845 131.643555,200.281769 
	C101.426979,237.028885 76.971817,277.348938 58.358986,321.179138 
	C38.248333,368.536530 25.568384,417.842590 21.334768,469.068390 
	C19.503683,491.224060 19.163153,513.646667 20.184559,535.854309 
	C21.227789,558.536377 23.522427,581.323914 27.469481,603.676819 
	C36.828022,656.675781 55.071373,706.697327 81.296936,753.775330 
	C111.882919,808.680786 151.393768,856.171448 199.877457,896.086975 
	C249.276749,936.756226 304.548218,966.750244 365.601074,986.116638 
	C408.834717,999.830627 453.146942,1007.101501 498.377777,1008.789062 
	C529.880127,1009.964417 561.268677,1007.818970 592.368774,1002.766479 
	C645.309692,994.165649 695.634033,977.547363 743.164124,952.528625 
	C803.983521,920.514709 855.948608,877.774475 899.164551,824.374573 
	C937.061707,777.546875 965.517578,725.520142 984.241516,668.272217 
	C1003.092102,610.636841 1011.770386,551.517700 1008.013123,490.876862 
	C1006.740540,470.338440 1004.994385,449.714447 1001.584839,429.445770 
	C992.883850,377.720978 975.915710,328.656311 950.850586,281.673065 
z"/>
<path fill="#000000" opacity="1.000000" stroke="none" 
	d="
M590.000000,1.000007 
	C735.927673,1.000000 881.855286,1.000000 1028.000000,1.000000 
	C1028.000000,144.023254 1028.000000,287.046600 1027.614502,430.711914 
	C1026.506226,430.323853 1025.372070,429.380463 1025.133545,428.248413 
	C1024.215820,423.891632 1023.664917,419.459167 1022.829407,415.083160 
	C1021.328369,407.221893 1020.029419,399.303467 1018.082397,391.550446 
	C1015.403137,380.881134 1012.488037,370.250977 1009.128296,359.779114 
	C1006.526184,351.668579 1003.066101,343.834625 1000.025757,335.863129 
	C996.010803,325.336395 992.328003,314.670654 987.940918,304.302216 
	C984.773315,296.816010 980.754944,289.683594 977.000244,282.453491 
	C972.127014,273.069397 967.425903,263.578003 962.112854,254.445709 
	C957.540161,246.586090 952.246155,239.143417 947.209717,231.557129 
	C942.636108,224.668045 938.028076,217.800644 933.338501,210.990234 
	C931.133484,207.788071 928.595703,204.814804 926.397095,201.608566 
	C923.097900,196.797348 920.485291,191.411560 916.657959,187.086655 
	C907.103333,176.289902 897.152832,165.833252 887.123657,155.469879 
	C879.082947,147.161072 870.780029,139.099457 862.430542,131.098175 
	C856.347412,125.268730 850.156250,119.528732 843.707825,114.112473 
	C839.979309,110.980804 835.556030,108.692345 831.603149,105.808281 
	C824.572388,100.678596 817.767578,95.235344 810.674072,90.196640 
	C801.372375,83.589417 792.072327,76.943970 782.409668,70.892944 
	C775.483276,66.555435 767.859009,63.349907 760.731018,59.312889 
	C747.934204,52.065296 734.887817,45.365017 721.275452,39.768925 
	C716.462524,37.790276 711.810608,35.423424 707.032532,33.355396 
	C703.429871,31.796101 699.804626,30.245235 696.081665,29.017130 
	C688.196045,26.415859 680.278809,23.894382 672.303772,21.584341 
	C660.843323,18.264717 649.390808,14.868196 637.797424,12.075178 
	C630.502991,10.317848 623.578979,7.538878 615.850830,6.718129 
	C608.080566,5.892915 600.385986,3.401210 592.392578,3.061595 
	C591.567322,3.026532 590.796204,1.717770 590.000000,1.000007 
z"/>
<path fill="#000000" opacity="1.000000" stroke="none" 
	d="
M0.999997,436.000000 
	C1.000000,291.071198 1.000000,146.142380 1.000000,1.000000 
	C146.357346,1.000000 291.714783,1.000000 437.649139,1.426957 
	C437.881897,2.194074 437.568604,2.790502 437.188965,2.836270 
	C430.638275,3.626007 424.080292,4.355956 417.520935,5.072004 
	C416.877930,5.142193 416.165283,4.863559 415.570251,5.037929 
	C410.086548,6.644855 404.672821,8.516429 399.140900,9.927514 
	C386.822601,13.069662 374.305328,15.513531 362.139526,19.147148 
	C351.653259,22.279135 341.521820,26.612894 331.268799,30.508303 
	C320.140381,34.736317 308.798340,38.521477 298.015106,43.506924 
	C285.941742,49.088825 274.252808,55.555504 262.650299,62.087791 
	C250.625809,68.857643 238.642792,75.768570 227.123886,83.350449 
	C215.013931,91.321381 203.114136,99.708260 191.793045,108.752693 
	C181.344879,117.099739 171.784042,126.557686 161.834976,135.529190 
	C150.157394,146.059372 139.086731,157.058670 128.906204,169.181885 
	C120.659584,179.002151 111.250916,187.719299 104.431442,198.871826 
	C99.612648,206.752457 92.809395,213.390625 87.464302,220.986160 
	C81.388512,229.620041 75.801781,238.611755 70.291107,247.624390 
	C67.120316,252.810181 64.688240,258.443115 61.619209,263.696899 
	C58.274075,269.423370 53.949947,274.651764 51.167953,280.617432 
	C45.925308,291.859650 41.269108,303.391693 36.761372,314.956177 
	C31.010115,329.710876 25.389267,344.527771 20.212637,359.490997 
	C17.022289,368.712799 14.764152,378.257172 12.089645,387.657349 
	C10.430694,393.488129 8.651909,399.288666 7.164424,405.162933 
	C6.234208,408.836456 5.610820,412.603088 5.089235,416.361176 
	C4.227305,422.571503 3.589396,428.812836 2.737546,435.024719 
	C2.683099,435.421753 1.602973,435.678162 0.999997,436.000000 
z"/>
<path fill="#000000" opacity="1.000000" stroke="none" 
	d="
M1028.000000,595.000000 
	C1028.000000,739.261414 1028.000000,883.522888 1028.000000,1028.000000 
	C884.643433,1028.000000 741.286743,1028.000000 597.151123,1027.663940 
	C597.572449,1026.566162 598.686768,1025.371704 599.986938,1025.113647 
	C607.761292,1023.570557 615.596008,1022.333435 623.376099,1020.817383 
	C630.772461,1019.376160 638.254272,1018.157837 645.471436,1016.060120 
	C658.240662,1012.348877 670.861816,1008.118713 683.497437,1003.961304 
	C691.363770,1001.373047 699.220947,998.721191 706.940918,995.733032 
	C716.126831,992.177429 725.382324,988.680237 734.205872,984.340698 
	C745.426880,978.822083 756.345703,972.660339 767.206909,966.447388 
	C777.263489,960.694763 787.411316,954.998291 796.917053,948.408691 
	C814.393738,936.293152 831.758789,923.963684 848.523071,910.893127 
	C858.548828,903.076416 867.633423,893.969543 876.622131,884.926758 
	C888.144592,873.334839 899.734497,861.717102 910.205933,849.199219 
	C920.793091,836.542969 930.133789,822.834778 939.858704,809.469727 
	C945.917419,801.143188 952.142151,792.879333 957.448608,784.078613 
	C963.755859,773.618103 969.281311,762.675842 974.911133,751.820679 
	C978.892517,744.143982 982.709961,736.364563 986.195129,728.452393 
	C991.015442,717.508972 995.783508,706.520325 999.961914,695.322754 
	C1003.908752,684.745361 1007.319702,673.947571 1010.495239,663.108704 
	C1013.624023,652.429749 1016.216919,641.591492 1018.926514,630.793396 
	C1019.808472,627.278809 1019.903809,623.526611 1021.085083,620.136047 
	C1023.384155,613.536987 1024.974854,606.903870 1024.894165,599.870300 
	C1024.870483,597.796204 1024.516846,595.046204 1028.000000,595.000000 
z"/>
<path fill="#000000" opacity="1.000000" stroke="none" 
	d="
M429.000000,1028.000000 
	C286.404480,1028.000000 143.808929,1028.000000 1.000000,1028.000000 
	C1.000000,883.310059 1.000000,738.620056 1.429419,593.357422 
	C2.293594,593.777893 3.004274,594.740479 3.117713,595.769043 
	C3.785565,601.824158 3.839316,607.987244 5.000446,613.938354 
	C6.772354,623.019714 8.914646,632.065796 11.549451,640.933838 
	C16.451458,657.432617 21.341841,673.963989 27.138918,690.158997 
	C32.403130,704.865295 38.463066,719.325806 44.931412,733.549438 
	C49.881363,744.434204 55.800434,754.901794 61.682304,765.332764 
	C67.820946,776.219116 73.865219,787.231262 80.963303,797.487610 
	C92.599106,814.300720 104.698700,830.824524 117.285477,846.936890 
	C125.876480,857.934265 135.387222,868.251709 144.957108,878.430969 
	C150.449097,884.272583 156.889999,889.220337 162.886383,894.589844 
	C172.757095,903.428467 182.379547,912.564453 192.560104,921.029724 
	C199.158508,926.516357 206.537994,931.069824 213.612808,935.976013 
	C225.016937,943.884521 236.252838,952.062012 247.950836,959.511902 
	C256.846924,965.177429 266.167969,970.258057 275.627960,974.935486 
	C288.467224,981.283813 301.470490,987.355164 314.680664,992.882935 
	C327.344208,998.182007 340.246979,1002.975525 353.256500,1007.363098 
	C365.958038,1011.646912 378.913971,1015.182495 391.789001,1018.941223 
	C394.864288,1019.838989 398.038422,1020.471924 401.208466,1020.954773 
	C406.243866,1021.721680 411.330261,1022.155273 416.363678,1022.933044 
	C419.476288,1023.414001 422.601318,1024.060059 425.579102,1025.055664 
	C426.899933,1025.497192 427.870453,1026.986328 429.000000,1028.000000 
z"/>
<path fill="#ACACAC" opacity="1.000000" stroke="none" 
	d="
M1028.000000,594.531372 
	C1024.516846,595.046204 1024.870483,597.796204 1024.894165,599.870300 
	C1024.974854,606.903870 1023.384155,613.536987 1021.085083,620.136047 
	C1019.903809,623.526611 1019.808472,627.278809 1018.926514,630.793396 
	C1016.216919,641.591492 1013.624023,652.429749 1010.495239,663.108704 
	C1007.319702,673.947571 1003.908752,684.745361 999.961914,695.322754 
	C995.783508,706.520325 991.015442,717.508972 986.195129,728.452393 
	C982.709961,736.364563 978.892517,744.143982 974.911133,751.820679 
	C969.281311,762.675842 963.755859,773.618103 957.448608,784.078613 
	C952.142151,792.879333 945.917419,801.143188 939.858704,809.469727 
	C930.133789,822.834778 920.793091,836.542969 910.205933,849.199219 
	C899.734497,861.717102 888.144592,873.334839 876.622131,884.926758 
	C867.633423,893.969543 858.548828,903.076416 848.523071,910.893127 
	C831.758789,923.963684 814.393738,936.293152 796.917053,948.408691 
	C787.411316,954.998291 777.263489,960.694763 767.206909,966.447388 
	C756.345703,972.660339 745.426880,978.822083 734.205872,984.340698 
	C725.382324,988.680237 716.126831,992.177429 706.940918,995.733032 
	C699.220947,998.721191 691.363770,1001.373047 683.497437,1003.961304 
	C670.861816,1008.118713 658.240662,1012.348877 645.471436,1016.060120 
	C638.254272,1018.157837 630.772461,1019.376160 623.376099,1020.817383 
	C615.596008,1022.333435 607.761292,1023.570557 599.986938,1025.113647 
	C598.686768,1025.371704 597.572449,1026.566162 596.686096,1027.663940 
	C576.312439,1028.000000 555.624878,1028.000000 534.468628,1028.000000 
	C535.319824,1027.405640 536.619751,1026.340820 537.962341,1026.284180 
	C615.038940,1023.023193 687.501587,1002.828674 755.523438,966.683044 
	C790.196533,948.258362 822.206604,925.907837 851.800598,900.030579 
	C891.744263,865.103271 925.397339,824.933350 952.913147,779.644226 
	C983.967224,728.531616 1005.395752,673.603760 1017.019836,614.905701 
	C1022.096924,589.267761 1025.551758,563.426025 1026.272827,537.260742 
	C1026.302734,536.177551 1026.877563,535.109436 1027.599121,534.017090 
	C1028.000000,554.020874 1028.000000,574.041809 1028.000000,594.531372 
z"/>
<path fill="#ACACAC" opacity="1.000000" stroke="none" 
	d="
M429.468658,1028.000000 
	C427.870453,1026.986328 426.899933,1025.497192 425.579102,1025.055664 
	C422.601318,1024.060059 419.476288,1023.414001 416.363678,1022.933044 
	C411.330261,1022.155273 406.243866,1021.721680 401.208466,1020.954773 
	C398.038422,1020.471924 394.864288,1019.838989 391.789001,1018.941223 
	C378.913971,1015.182495 365.958038,1011.646912 353.256500,1007.363098 
	C340.246979,1002.975525 327.344208,998.182007 314.680664,992.882935 
	C301.470490,987.355164 288.467224,981.283813 275.627960,974.935486 
	C266.167969,970.258057 256.846924,965.177429 247.950836,959.511902 
	C236.252838,952.062012 225.016937,943.884521 213.612808,935.976013 
	C206.537994,931.069824 199.158508,926.516357 192.560104,921.029724 
	C182.379547,912.564453 172.757095,903.428467 162.886383,894.589844 
	C156.889999,889.220337 150.449097,884.272583 144.957108,878.430969 
	C135.387222,868.251709 125.876480,857.934265 117.285477,846.936890 
	C104.698700,830.824524 92.599106,814.300720 80.963303,797.487610 
	C73.865219,787.231262 67.820946,776.219116 61.682304,765.332764 
	C55.800434,754.901794 49.881363,744.434204 44.931412,733.549438 
	C38.463066,719.325806 32.403130,704.865295 27.138918,690.158997 
	C21.341841,673.963989 16.451458,657.432617 11.549451,640.933838 
	C8.914646,632.065796 6.772354,623.019714 5.000446,613.938354 
	C3.839316,607.987244 3.785565,601.824158 3.117713,595.769043 
	C3.004274,594.740479 2.293594,593.777893 1.429419,592.892395 
	C1.000000,579.645752 1.000000,566.291565 1.000006,552.468628 
	C1.611421,553.145264 2.679469,554.256165 2.768562,555.440735 
	C6.678033,607.418945 18.586229,657.536377 38.079105,705.822998 
	C58.490627,756.385254 86.393387,802.463318 121.477425,844.249207 
	C152.203796,880.845032 187.360794,912.514709 226.903137,939.203613 
	C282.434204,976.684082 342.992584,1002.550293 408.700287,1016.100281 
	C435.772614,1021.683044 463.069153,1025.467896 490.737671,1026.272949 
	C491.821625,1026.304443 492.889801,1026.877930 493.982666,1027.599365 
	C472.645782,1028.000000 451.291534,1028.000000 429.468658,1028.000000 
z"/>
<path fill="#ACACAC" opacity="1.000000" stroke="none" 
	d="
M589.531372,1.000007 
	C590.796204,1.717770 591.567322,3.026532 592.392578,3.061595 
	C600.385986,3.401210 608.080566,5.892915 615.850830,6.718129 
	C623.578979,7.538878 630.502991,10.317848 637.797424,12.075178 
	C649.390808,14.868196 660.843323,18.264717 672.303772,21.584341 
	C680.278809,23.894382 688.196045,26.415859 696.081665,29.017130 
	C699.804626,30.245235 703.429871,31.796101 707.032532,33.355396 
	C711.810608,35.423424 716.462524,37.790276 721.275452,39.768925 
	C734.887817,45.365017 747.934204,52.065296 760.731018,59.312889 
	C767.859009,63.349907 775.483276,66.555435 782.409668,70.892944 
	C792.072327,76.943970 801.372375,83.589417 810.674072,90.196640 
	C817.767578,95.235344 824.572388,100.678596 831.603149,105.808281 
	C835.556030,108.692345 839.979309,110.980804 843.707825,114.112473 
	C850.156250,119.528732 856.347412,125.268730 862.430542,131.098175 
	C870.780029,139.099457 879.082947,147.161072 887.123657,155.469879 
	C897.152832,165.833252 907.103333,176.289902 916.657959,187.086655 
	C920.485291,191.411560 923.097900,196.797348 926.397095,201.608566 
	C928.595703,204.814804 931.133484,207.788071 933.338501,210.990234 
	C938.028076,217.800644 942.636108,224.668045 947.209717,231.557129 
	C952.246155,239.143417 957.540161,246.586090 962.112854,254.445709 
	C967.425903,263.578003 972.127014,273.069397 977.000244,282.453491 
	C980.754944,289.683594 984.773315,296.816010 987.940918,304.302216 
	C992.328003,314.670654 996.010803,325.336395 1000.025757,335.863129 
	C1003.066101,343.834625 1006.526184,351.668579 1009.128296,359.779114 
	C1012.488037,370.250977 1015.403137,380.881134 1018.082397,391.550446 
	C1020.029419,399.303467 1021.328369,407.221893 1022.829407,415.083160 
	C1023.664917,419.459167 1024.215820,423.891632 1025.133545,428.248413 
	C1025.372070,429.380463 1026.506226,430.323853 1027.614502,431.176941 
	C1028.000000,451.687561 1028.000000,472.375122 1028.000000,493.531342 
	C1027.407227,492.680206 1026.345459,491.380310 1026.288574,490.037781 
	C1023.011475,412.790436 1002.761780,340.170532 966.448242,272.044434 
	C945.756531,233.225800 920.260254,197.771912 890.325439,165.461395 
	C845.062012,116.605804 792.305664,78.046753 732.167358,49.598114 
	C689.216736,29.280203 644.268127,15.170982 597.274719,7.922790 
	C583.166809,5.746803 568.917419,4.489967 554.738708,2.764506 
	C553.809448,2.651428 552.929810,2.130965 552.013550,1.399998 
	C564.354248,1.000000 576.708435,1.000000 589.531372,1.000007 
z"/>
<path fill="#ADADAD" opacity="1.000000" stroke="none" 
	d="
M0.999997,436.468658 
	C1.602973,435.678162 2.683099,435.421753 2.737546,435.024719 
	C3.589396,428.812836 4.227305,422.571503 5.089235,416.361176 
	C5.610820,412.603088 6.234208,408.836456 7.164424,405.162933 
	C8.651909,399.288666 10.430694,393.488129 12.089645,387.657349 
	C14.764152,378.257172 17.022289,368.712799 20.212637,359.490997 
	C25.389267,344.527771 31.010115,329.710876 36.761372,314.956177 
	C41.269108,303.391693 45.925308,291.859650 51.167953,280.617432 
	C53.949947,274.651764 58.274075,269.423370 61.619209,263.696899 
	C64.688240,258.443115 67.120316,252.810181 70.291107,247.624390 
	C75.801781,238.611755 81.388512,229.620041 87.464302,220.986160 
	C92.809395,213.390625 99.612648,206.752457 104.431442,198.871826 
	C111.250916,187.719299 120.659584,179.002151 128.906204,169.181885 
	C139.086731,157.058670 150.157394,146.059372 161.834976,135.529190 
	C171.784042,126.557686 181.344879,117.099739 191.793045,108.752693 
	C203.114136,99.708260 215.013931,91.321381 227.123886,83.350449 
	C238.642792,75.768570 250.625809,68.857643 262.650299,62.087791 
	C274.252808,55.555504 285.941742,49.088825 298.015106,43.506924 
	C308.798340,38.521477 320.140381,34.736317 331.268799,30.508303 
	C341.521820,26.612894 351.653259,22.279135 362.139526,19.147148 
	C374.305328,15.513531 386.822601,13.069662 399.140900,9.927514 
	C404.672821,8.516429 410.086548,6.644855 415.570251,5.037929 
	C416.165283,4.863559 416.877930,5.142193 417.520935,5.072004 
	C424.080292,4.355956 430.638275,3.626007 437.188965,2.836270 
	C437.568604,2.790502 437.881897,2.194074 438.113037,1.426957 
	C450.354218,1.000000 462.708466,1.000000 475.531342,0.999999 
	C474.856384,1.612031 473.747986,2.679453 472.564117,2.770986 
	C401.747589,8.246458 335.085449,27.995314 272.457153,61.318600 
	C238.094772,79.602158 206.296646,101.693932 176.954254,127.314751 
	C123.293472,174.169601 81.150208,229.778915 50.472340,294.019775 
	C29.635769,337.652496 15.176106,383.354736 7.879673,431.201752 
	C5.728187,445.310364 4.478644,459.556030 2.768417,473.733185 
	C2.636088,474.830170 2.127671,475.881805 1.397029,476.977234 
	C1.000000,463.645782 1.000000,450.291534 0.999997,436.468658 
z"/>
<path fill="#AAAAAA" opacity="1.000000" stroke="none" 
	d="
M951.004395,282.010742 
	C975.915710,328.656311 992.883850,377.720978 1001.584839,429.445770 
	C1004.994385,449.714447 1006.740540,470.338440 1008.013123,490.876862 
	C1011.770386,551.517700 1003.092102,610.636841 984.241516,668.272217 
	C965.517578,725.520142 937.061707,777.546875 899.164551,824.374573 
	C855.948608,877.774475 803.983521,920.514709 743.164124,952.528625 
	C695.634033,977.547363 645.309692,994.165649 592.368774,1002.766479 
	C561.268677,1007.818970 529.880127,1009.964417 498.377777,1008.789062 
	C453.146942,1007.101501 408.834717,999.830627 365.601074,986.116638 
	C304.548218,966.750244 249.276749,936.756226 199.877457,896.086975 
	C151.393768,856.171448 111.882919,808.680786 81.296936,753.775330 
	C55.071373,706.697327 36.828022,656.675781 27.469481,603.676819 
	C23.522427,581.323914 21.227789,558.536377 20.184559,535.854309 
	C19.163153,513.646667 19.503683,491.224060 21.334768,469.068390 
	C25.568384,417.842590 38.248333,368.536530 58.358986,321.179138 
	C76.971817,277.348938 101.426979,237.028885 131.643555,200.281769 
	C169.674149,154.031845 214.651398,115.849449 266.462616,85.760567 
	C309.523529,60.753349 355.334412,42.728615 403.859589,31.602419 
	C427.378510,26.209831 451.139069,22.272516 475.250458,20.940643 
	C491.359619,20.050802 507.515961,18.917616 523.621948,19.261618 
	C585.080139,20.574287 644.398132,32.627270 701.331604,56.067204 
	C754.509460,77.960953 802.430603,108.164162 845.152283,146.640274 
	C884.331055,181.925552 916.957153,222.512726 943.360718,268.123810 
	C945.945618,272.589111 948.358093,277.154236 951.004395,282.010742 
M770.907654,101.574646 
	C748.238037,87.490189 724.644775,75.196526 699.972778,64.995598 
	C640.526062,40.416630 578.625549,28.039286 514.310913,28.100492 
	C500.520599,28.113615 486.622894,28.403561 472.965912,30.103014 
	C449.755981,32.991219 426.420105,35.854347 403.629700,40.936741 
	C342.305176,54.612469 286.175446,80.436005 234.747711,116.511635 
	C199.495346,141.240509 168.198944,170.299316 140.607529,203.288040 
	C110.942284,238.756287 86.930893,277.798065 68.395607,320.177124 
	C43.304214,377.546051 29.995390,437.614960 28.256624,500.130920 
	C27.748766,518.390564 28.226692,536.821655 30.167341,554.969360 
	C32.652657,578.210449 35.922276,601.495667 40.900589,624.315430 
	C51.293488,671.954529 69.651672,716.640991 94.267891,758.768311 
	C125.567253,812.332825 165.783539,858.151489 214.426620,896.480164 
	C260.510986,932.792725 311.648682,959.770874 367.649170,977.505981 
	C410.884308,991.198303 455.158905,998.992554 500.447998,999.736206 
	C522.522095,1000.098633 544.685791,998.680847 566.719849,996.940735 
	C599.827942,994.325989 632.047485,986.772156 663.588562,976.540161 
	C716.321167,959.433655 764.685547,933.943359 808.750244,900.245483 
	C844.968384,872.548157 876.700073,840.440430 903.945068,803.931030 
	C931.395081,767.146973 953.197144,727.233093 969.330017,684.238098 
	C988.009949,634.454956 998.059509,582.943970 999.863281,529.855652 
	C1000.740173,504.046967 999.392334,478.311462 996.167725,452.648376 
	C992.152954,420.697388 985.051819,389.467560 974.745728,359.015198 
	C959.984558,315.398926 939.474243,274.628998 913.031067,236.860489 
	C874.897522,182.394836 827.742432,137.437729 770.907654,101.574646 
z"/>
<path fill="#FFFFFF" opacity="1.000000" stroke="none" 
	d="
M771.210327,101.777267 
	C827.742432,137.437729 874.897522,182.394836 913.031067,236.860489 
	C939.474243,274.628998 959.984558,315.398926 974.745728,359.015198 
	C985.051819,389.467560 992.152954,420.697388 996.167725,452.648376 
	C999.392334,478.311462 1000.740173,504.046967 999.863281,529.855652 
	C998.059509,582.943970 988.009949,634.454956 969.330017,684.238098 
	C953.197144,727.233093 931.395081,767.146973 903.945068,803.931030 
	C876.700073,840.440430 844.968384,872.548157 808.750244,900.245483 
	C764.685547,933.943359 716.321167,959.433655 663.588562,976.540161 
	C632.047485,986.772156 599.827942,994.325989 566.719849,996.940735 
	C544.685791,998.680847 522.522095,1000.098633 500.447998,999.736206 
	C455.158905,998.992554 410.884308,991.198303 367.649170,977.505981 
	C311.648682,959.770874 260.510986,932.792725 214.426620,896.480164 
	C165.783539,858.151489 125.567253,812.332825 94.267891,758.768311 
	C69.651672,716.640991 51.293488,671.954529 40.900589,624.315430 
	C35.922276,601.495667 32.652657,578.210449 30.167341,554.969360 
	C28.226692,536.821655 27.748766,518.390564 28.256624,500.130920 
	C29.995390,437.614960 43.304214,377.546051 68.395607,320.177124 
	C86.930893,277.798065 110.942284,238.756287 140.607529,203.288040 
	C168.198944,170.299316 199.495346,141.240509 234.747711,116.511635 
	C286.175446,80.436005 342.305176,54.612469 403.629700,40.936741 
	C426.420105,35.854347 449.755981,32.991219 472.965912,30.103014 
	C486.622894,28.403561 500.520599,28.113615 514.310913,28.100492 
	C578.625549,28.039286 640.526062,40.416630 699.972778,64.995598 
	C724.644775,75.196526 748.238037,87.490189 771.210327,101.777267 
M521.109863,484.788544 
	C521.501160,473.296417 521.715881,461.794830 522.329773,450.314606 
	C523.049438,436.857513 523.385559,423.318390 525.219116,409.998108 
	C527.466797,393.668427 536.938416,381.906403 551.556396,374.143097 
	C580.725281,414.215240 609.723694,454.052948 638.721436,493.891083 
	C639.602905,495.101990 640.340698,496.463837 641.413330,497.469727 
	C641.956055,497.978729 643.098511,497.848328 643.969788,498.007019 
	C644.049988,497.138306 644.420044,496.159119 644.141174,495.427155 
	C643.739868,494.373901 642.877747,493.492279 642.193176,492.551331 
	C624.563782,468.321167 606.929260,444.094727 589.307251,419.859222 
	C588.288513,418.458038 587.367737,416.985626 586.346985,415.465332 
	C593.411194,413.233032 599.904602,411.178802 606.399475,409.129211 
	C623.103455,403.857880 633.454834,392.613861 636.984253,375.538696 
	C639.843628,361.704926 642.069275,347.738464 644.430969,333.806244 
	C644.663147,332.436768 643.878357,330.894897 643.565613,329.433044 
	C642.676819,330.716949 641.248962,331.898407 640.982361,333.300598 
	C638.218140,347.839905 636.035400,362.500427 632.897644,376.954987 
	C629.939392,390.583130 622.139404,400.801453 608.702881,405.871521 
	C602.341980,408.271729 595.761108,410.087311 589.389587,412.461945 
	C586.035706,413.711853 584.159119,412.955627 582.045654,410.020081 
	C563.466919,384.215454 544.729370,358.524811 525.943665,332.870239 
	C524.945435,331.507050 523.089539,330.772003 521.632874,329.744537 
	C522.072632,331.427887 522.077576,333.420563 523.020386,334.746063 
	C531.125427,346.140228 539.405396,357.409943 547.615356,368.729645 
	C548.443787,369.871857 549.155151,371.098999 550.055664,372.495911 
	C529.157654,383.543121 520.534119,401.359253 519.799683,423.807953 
	C519.396423,436.131927 518.784119,448.448914 518.312195,460.770813 
	C517.884888,471.927856 517.460510,483.085968 517.204468,494.247498 
	C517.172913,495.624146 518.186157,497.024780 518.715210,498.414307 
	C519.448669,497.018158 520.620300,495.682098 520.821655,494.213013 
	C521.203857,491.424896 521.030273,488.560608 521.109863,484.788544 
M376.008301,709.445740 
	C382.625641,706.781433 389.176819,703.935608 395.875488,701.494507 
	C406.552490,697.603638 412.084076,689.745300 413.689850,678.888733 
	C415.855408,664.247498 417.792114,649.572327 419.827759,634.911926 
	C420.195007,632.267029 420.174103,629.614502 416.866119,629.065613 
	C413.181396,628.454163 412.470825,631.261475 412.087860,634.038757 
	C410.338715,646.723938 408.815430,659.444092 406.814484,672.088928 
	C405.969604,677.428101 404.772064,682.889893 402.596344,687.790527 
	C400.370239,692.804871 397.533661,692.984680 393.114563,689.633240 
	C387.921997,685.695374 385.728088,679.975098 384.071503,673.970947 
	C380.362946,660.529358 376.656860,647.087158 372.955872,633.643494 
	C372.156921,630.741333 371.074219,627.834473 367.293701,629.134521 
	C363.786224,630.340759 364.826843,633.249146 365.565826,635.875183 
	C369.163269,648.659119 372.860596,661.416992 376.268219,674.251587 
	C378.693695,683.387085 383.142242,690.733215 392.178558,694.616821 
	C392.325867,694.680176 392.269745,695.216980 392.310913,695.552002 
	C383.085144,699.293884 373.800690,702.899658 364.700623,706.922668 
	C363.334229,707.526733 362.830597,710.082397 361.927887,711.735291 
	C363.612091,712.180176 365.432129,713.259277 366.951355,712.933960 
	C369.832977,712.316711 372.542206,710.894653 376.008301,709.445740 
M337.973541,637.418457 
	C336.945404,643.145142 335.686615,648.842285 334.946381,654.605896 
	C333.976898,662.155090 330.105316,666.736816 322.087769,668.186279 
	C315.764954,657.302795 309.354950,646.262451 302.935730,635.227478 
	C302.017487,633.648926 301.380707,631.649170 300.020660,630.657898 
	C298.675690,629.677612 296.067810,628.883911 294.954376,629.559143 
	C293.800354,630.259033 293.417358,632.813721 293.384277,634.570068 
	C293.362732,635.712524 294.553223,636.887939 295.228882,638.031921 
	C305.962860,656.204895 316.518524,674.486938 327.519806,692.496704 
	C332.648743,700.893127 335.167267,709.720398 334.953674,719.461853 
	C334.876984,722.957825 334.676697,726.500427 335.156433,729.934631 
	C335.342285,731.265137 337.091034,732.973755 338.438904,733.328735 
	C339.290070,733.552795 341.731781,731.590088 341.731323,730.609070 
	C341.725403,718.543457 343.536194,706.187927 337.323792,694.907043 
	C333.175751,687.374695 328.884277,679.921265 324.497711,672.150330 
	C327.122864,671.188538 329.626862,670.650452 331.716064,669.412354 
	C334.500610,667.762207 338.509796,666.046814 339.291229,663.523010 
	C342.418182,653.423218 344.608337,643.022827 346.796112,632.659912 
	C347.008331,631.654785 344.963959,629.325012 343.695007,629.091980 
	C342.404663,628.854980 340.288177,630.109009 339.427612,631.336792 
	C338.455902,632.723267 338.480621,634.808167 337.973541,637.418457 
M726.832153,654.521790 
	C726.838989,652.357239 726.862549,650.192627 726.849854,648.028198 
	C726.778992,635.943298 719.100708,627.972046 706.929504,627.958435 
	C700.458496,627.951172 693.957397,628.584961 687.536072,629.431580 
	C685.977051,629.637085 684.679443,631.825500 683.261597,633.102112 
	C684.946045,634.040710 686.615479,635.739502 688.317810,635.773132 
	C693.126099,635.868286 697.943970,635.189880 702.765198,634.979370 
	C714.915100,634.448608 718.464294,638.155457 718.899536,650.177979 
	C719.473877,666.041809 716.780640,682.101868 721.601807,698.024963 
	C710.053162,698.024963 698.588989,697.974670 687.125854,698.061096 
	C684.338379,698.082153 680.283569,696.910645 680.127808,701.402954 
	C679.967346,706.032593 684.042297,704.963745 686.842712,704.982544 
	C698.164307,705.058594 709.486755,705.015991 720.808838,705.013062 
	C724.138733,705.012207 727.515442,705.315063 730.775513,704.833862 
	C732.082764,704.640930 733.758850,702.858765 734.077942,701.517212 
	C734.285400,700.644592 732.507019,699.037659 731.314026,698.186096 
	C730.515991,697.616577 729.183716,697.795654 726.827637,697.459656 
	C726.827637,683.399414 726.827637,669.457275 726.832153,654.521790 
M531.229187,705.066223 
	C532.121399,703.804382 533.380066,702.662354 533.838867,701.258789 
	C535.372986,696.566284 536.156006,691.583130 538.069336,687.068359 
	C542.992859,675.450745 548.131409,663.908936 553.664307,652.571228 
	C556.396301,646.973022 557.245850,641.359253 557.154724,635.270996 
	C557.088562,630.851135 555.156738,629.358032 551.074951,629.391174 
	C541.575623,629.468201 532.075317,629.416443 522.575378,629.416809 
	C519.841980,629.416870 517.108582,629.416809 514.214783,629.416809 
	C514.214783,624.209167 514.191956,619.880615 514.222839,615.552429 
	C514.243225,612.693298 513.999268,609.945129 510.228363,609.983521 
	C506.817230,610.018372 506.351288,612.612854 506.321411,615.257507 
	C506.263000,620.423462 506.352966,625.591248 506.285675,630.757019 
	C506.233887,634.733276 508.023071,636.457214 512.058472,636.413391 
	C522.890442,636.295593 533.724487,636.375427 544.557739,636.376709 
	C546.624390,636.376953 548.691040,636.376709 551.423340,636.376709 
	C550.199768,639.717468 549.395935,642.225830 548.376587,644.643311 
	C542.504944,658.568542 536.420715,672.407166 530.769836,686.420837 
	C528.933716,690.974182 527.890747,695.920898 527.141968,700.788757 
	C526.948486,702.046570 529.239929,703.686707 531.229187,705.066223 
M414.922607,476.499817 
	C414.922394,482.497589 414.821014,488.498352 414.998352,494.490875 
	C415.038940,495.862976 416.039581,497.206726 416.598389,498.563507 
	C417.197937,497.219208 417.974213,495.920929 418.340179,494.515808 
	C418.624664,493.423615 418.397614,492.198151 418.397614,491.031921 
	C418.397949,441.717041 418.416870,392.402100 418.366943,343.087280 
	C418.362457,338.650116 419.554810,332.532532 417.212830,330.245728 
	C414.835968,327.924866 408.766907,329.226135 404.314270,329.216614 
	C379.157135,329.162903 353.999786,329.174408 328.842651,329.231720 
	C327.127136,329.235626 325.412903,329.794830 323.698059,330.095764 
	C323.806641,330.745422 323.915222,331.395081 324.023834,332.044739 
	C354.215179,332.044739 384.406555,332.044739 414.922333,332.044739 
	C414.922333,380.264923 414.922333,427.882416 414.922607,476.499817 
M657.076294,657.500061 
	C657.076538,671.656433 657.096497,685.812866 657.060791,699.969116 
	C657.053406,702.902222 657.591248,705.639832 661.079102,705.660095 
	C664.594604,705.680603 665.065735,702.966736 665.059326,700.015625 
	C665.012878,678.531372 664.951294,657.046448 665.099915,635.563049 
	C665.132019,630.934692 663.176758,629.344543 658.827820,629.386414 
	C647.836853,629.492371 636.844055,629.396729 625.852234,629.441162 
	C623.219238,629.451843 619.986511,629.122620 620.064819,633.087402 
	C620.136963,636.741821 623.188416,636.348083 625.649475,636.355957 
	C635.961609,636.388855 646.273987,636.369812 657.076050,636.369812 
	C657.076050,643.241516 657.076050,649.870850 657.076294,657.500061 
M589.279846,673.969666 
	C588.819397,665.212341 587.658386,656.419922 588.095398,647.707642 
	C588.533020,638.983459 592.228088,636.384644 600.775085,636.375549 
	C601.606567,636.374695 602.438232,636.385132 603.269592,636.373291 
	C605.728394,636.338318 608.530823,636.063416 607.877991,632.846191 
	C607.597839,631.465515 605.048462,629.622559 603.482605,629.575623 
	C593.513489,629.277161 583.525696,629.256836 573.558228,629.580505 
	C571.875854,629.635071 569.097351,631.603577 568.854370,633.032837 
	C568.317505,636.191040 571.221191,636.374817 573.654419,636.376465 
	C578.035095,636.379456 582.415833,636.377380 587.908997,636.377380 
	C580.617554,645.203430 578.765381,654.414917 580.038025,664.322144 
	C581.625061,676.676697 583.243958,689.032043 585.241211,701.323303 
	C585.509766,702.976196 588.028076,705.417847 589.568115,705.466064 
	C592.637756,705.562134 593.302368,702.833008 592.910217,700.023193 
	C591.739197,691.633301 590.596375,683.239502 589.279846,673.969666 
M437.896484,685.499023 
	C437.896667,690.161011 437.943329,694.823669 437.880157,699.484802 
	C437.839783,702.463379 437.876129,705.664062 441.791504,705.649780 
	C445.616577,705.635803 445.846039,702.481445 445.843506,699.474243 
	C445.825439,677.995667 445.839752,656.517029 445.826630,635.038452 
	C445.824829,632.132629 445.855103,628.942139 441.786469,628.928711 
	C437.599854,628.914917 437.899261,632.182068 437.898590,635.048645 
	C437.894745,651.532227 437.896698,668.015808 437.896484,685.499023 
M472.309753,396.485199 
	C472.310120,388.987732 472.310577,381.490265 472.310791,373.992798 
	C472.311005,366.328705 472.338409,358.664520 472.303040,351.000580 
	C472.269562,343.743042 472.170105,336.485748 472.099670,329.228363 
	C471.319794,329.194977 470.539917,329.161560 469.760040,329.128174 
	C469.478271,330.860077 468.955383,332.591400 468.951263,334.323975 
	C468.896973,357.149475 468.915802,379.975128 468.916443,402.800751 
	C468.916443,403.633789 468.691315,404.554932 468.972717,405.278870 
	C469.375854,406.315979 470.149414,407.209137 470.764832,408.163757 
	C471.277618,407.268066 472.161499,406.400787 472.232666,405.471283 
	C472.435608,402.820892 472.307831,400.145172 472.309753,396.485199 
M691.835327,352.500000 
	C691.835693,369.657532 691.800781,386.815277 691.902039,403.972198 
	C691.910278,405.377502 692.846436,406.777374 693.351440,408.179749 
	C693.965515,406.890472 695.109375,405.603607 695.115234,404.311554 
	C695.222717,380.657959 695.209961,357.003754 695.153625,333.349792 
	C695.150269,331.931824 694.566711,330.515198 694.253113,329.097961 
	C693.719604,329.140045 693.186035,329.182129 692.652527,329.224243 
	C690.821899,336.536743 692.323303,344.090363 691.835327,352.500000 
z"/>
<path fill="#131313" opacity="1.000000" stroke="none" 
	d="
M521.098755,485.258240 
	C521.030273,488.560608 521.203857,491.424896 520.821655,494.213013 
	C520.620300,495.682098 519.448669,497.018158 518.715210,498.414307 
	C518.186157,497.024780 517.172913,495.624146 517.204468,494.247498 
	C517.460510,483.085968 517.884888,471.927856 518.312195,460.770813 
	C518.784119,448.448914 519.396423,436.131927 519.799683,423.807953 
	C520.534119,401.359253 529.157654,383.543121 550.055664,372.495911 
	C549.155151,371.098999 548.443787,369.871857 547.615356,368.729645 
	C539.405396,357.409943 531.125427,346.140228 523.020386,334.746063 
	C522.077576,333.420563 522.072632,331.427887 521.632874,329.744537 
	C523.089539,330.772003 524.945435,331.507050 525.943665,332.870239 
	C544.729370,358.524811 563.466919,384.215454 582.045654,410.020081 
	C584.159119,412.955627 586.035706,413.711853 589.389587,412.461945 
	C595.761108,410.087311 602.341980,408.271729 608.702881,405.871521 
	C622.139404,400.801453 629.939392,390.583130 632.897644,376.954987 
	C636.035400,362.500427 638.218140,347.839905 640.982361,333.300598 
	C641.248962,331.898407 642.676819,330.716949 643.565613,329.433044 
	C643.878357,330.894897 644.663147,332.436768 644.430969,333.806244 
	C642.069275,347.738464 639.843628,361.704926 636.984253,375.538696 
	C633.454834,392.613861 623.103455,403.857880 606.399475,409.129211 
	C599.904602,411.178802 593.411194,413.233032 586.346985,415.465332 
	C587.367737,416.985626 588.288513,418.458038 589.307251,419.859222 
	C606.929260,444.094727 624.563782,468.321167 642.193176,492.551331 
	C642.877747,493.492279 643.739868,494.373901 644.141174,495.427155 
	C644.420044,496.159119 644.049988,497.138306 643.969788,498.007019 
	C643.098511,497.848328 641.956055,497.978729 641.413330,497.469727 
	C640.340698,496.463837 639.602905,495.101990 638.721436,493.891083 
	C609.723694,454.052948 580.725281,414.215240 551.556396,374.143097 
	C536.938416,381.906403 527.466797,393.668427 525.219116,409.998108 
	C523.385559,423.318390 523.049438,436.857513 522.329773,450.314606 
	C521.715881,461.794830 521.501160,473.296417 521.098755,485.258240 
z"/>
<path fill="#090909" opacity="1.000000" stroke="none" 
	d="
M375.665680,709.626343 
	C372.542206,710.894653 369.832977,712.316711 366.951355,712.933960 
	C365.432129,713.259277 363.612091,712.180176 361.927856,711.735291 
	C362.830597,710.082397 363.334229,707.526733 364.700623,706.922668 
	C373.800690,702.899658 383.085144,699.293884 392.310913,695.552002 
	C392.269745,695.216980 392.325867,694.680176 392.178558,694.616821 
	C383.142242,690.733215 378.693695,683.387085 376.268219,674.251587 
	C372.860596,661.416992 369.163269,648.659119 365.565826,635.875183 
	C364.826843,633.249146 363.786224,630.340759 367.293701,629.134521 
	C371.074219,627.834473 372.156921,630.741333 372.955872,633.643494 
	C376.656860,647.087158 380.362946,660.529358 384.071503,673.970947 
	C385.728088,679.975098 387.921997,685.695374 393.114563,689.633240 
	C397.533661,692.984680 400.370239,692.804871 402.596344,687.790527 
	C404.772064,682.889893 405.969604,677.428101 406.814484,672.088928 
	C408.815430,659.444092 410.338715,646.723938 412.087860,634.038757 
	C412.470825,631.261475 413.181396,628.454163 416.866119,629.065613 
	C420.174103,629.614502 420.195007,632.267029 419.827759,634.911926 
	C417.792114,649.572327 415.855408,664.247498 413.689850,678.888733 
	C412.084076,689.745300 406.552490,697.603638 395.875488,701.494507 
	C389.176819,703.935608 382.625641,706.781433 375.665680,709.626343 
z"/>
<path fill="#080808" opacity="1.000000" stroke="none" 
	d="
M338.022766,637.003906 
	C338.480621,634.808167 338.455902,632.723267 339.427612,631.336792 
	C340.288177,630.109009 342.404663,628.854980 343.695007,629.091980 
	C344.963959,629.325012 347.008331,631.654785 346.796112,632.659912 
	C344.608337,643.022827 342.418182,653.423218 339.291229,663.523010 
	C338.509796,666.046814 334.500610,667.762207 331.716064,669.412354 
	C329.626862,670.650452 327.122864,671.188538 324.497711,672.150330 
	C328.884277,679.921265 333.175751,687.374695 337.323792,694.907043 
	C343.536194,706.187927 341.725403,718.543457 341.731323,730.609070 
	C341.731781,731.590088 339.290070,733.552795 338.438904,733.328735 
	C337.091034,732.973755 335.342285,731.265137 335.156433,729.934631 
	C334.676697,726.500427 334.876984,722.957825 334.953674,719.461853 
	C335.167267,709.720398 332.648743,700.893127 327.519806,692.496704 
	C316.518524,674.486938 305.962860,656.204895 295.228882,638.031921 
	C294.553223,636.887939 293.362732,635.712524 293.384277,634.570068 
	C293.417358,632.813721 293.800354,630.259033 294.954376,629.559143 
	C296.067810,628.883911 298.675690,629.677612 300.020660,630.657898 
	C301.380707,631.649170 302.017487,633.648926 302.935730,635.227478 
	C309.354950,646.262451 315.764954,657.302795 322.087769,668.186279 
	C330.105316,666.736816 333.976898,662.155090 334.946381,654.605896 
	C335.686615,648.842285 336.945404,643.145142 338.022766,637.003906 
z"/>
<path fill="#080808" opacity="1.000000" stroke="none" 
	d="
M726.829895,655.018433 
	C726.827637,669.457275 726.827637,683.399414 726.827637,697.459656 
	C729.183716,697.795654 730.515991,697.616577 731.314026,698.186096 
	C732.507019,699.037659 734.285400,700.644592 734.077942,701.517212 
	C733.758850,702.858765 732.082764,704.640930 730.775513,704.833862 
	C727.515442,705.315063 724.138733,705.012207 720.808838,705.013062 
	C709.486755,705.015991 698.164307,705.058594 686.842712,704.982544 
	C684.042297,704.963745 679.967346,706.032593 680.127808,701.402954 
	C680.283569,696.910645 684.338379,698.082153 687.125854,698.061096 
	C698.588989,697.974670 710.053162,698.024963 721.601807,698.024963 
	C716.780640,682.101868 719.473877,666.041809 718.899536,650.177979 
	C718.464294,638.155457 714.915100,634.448608 702.765198,634.979370 
	C697.943970,635.189880 693.126099,635.868286 688.317810,635.773132 
	C686.615479,635.739502 684.946045,634.040710 683.261597,633.102173 
	C684.679443,631.825500 685.977051,629.637085 687.536072,629.431580 
	C693.957397,628.584961 700.458496,627.951172 706.929504,627.958435 
	C719.100708,627.972046 726.778992,635.943298 726.849854,648.028198 
	C726.862549,650.192627 726.838989,652.357239 726.829895,655.018433 
z"/>
<path fill="#0B0B0B" opacity="1.000000" stroke="none" 
	d="
M530.809570,705.108704 
	C529.239929,703.686707 526.948486,702.046570 527.141968,700.788757 
	C527.890747,695.920898 528.933716,690.974182 530.769836,686.420837 
	C536.420715,672.407166 542.504944,658.568542 548.376587,644.643311 
	C549.395935,642.225830 550.199768,639.717468 551.423340,636.376709 
	C548.691040,636.376709 546.624390,636.376953 544.557739,636.376709 
	C533.724487,636.375427 522.890442,636.295593 512.058472,636.413391 
	C508.023071,636.457214 506.233887,634.733276 506.285675,630.757019 
	C506.352966,625.591248 506.263000,620.423462 506.321411,615.257507 
	C506.351288,612.612854 506.817230,610.018372 510.228363,609.983521 
	C513.999268,609.945129 514.243225,612.693298 514.222839,615.552429 
	C514.191956,619.880615 514.214783,624.209167 514.214783,629.416809 
	C517.108582,629.416809 519.841980,629.416870 522.575378,629.416809 
	C532.075317,629.416443 541.575623,629.468201 551.074951,629.391174 
	C555.156738,629.358032 557.088562,630.851135 557.154724,635.270996 
	C557.245850,641.359253 556.396301,646.973022 553.664307,652.571228 
	C548.131409,663.908936 542.992859,675.450745 538.069336,687.068359 
	C536.156006,691.583130 535.372986,696.566284 533.838867,701.258789 
	C533.380066,702.662354 532.121399,703.804382 530.809570,705.108704 
z"/>
<path fill="#0A0A0A" opacity="1.000000" stroke="none" 
	d="
M414.922485,475.999878 
	C414.922333,427.882416 414.922333,380.264923 414.922333,332.044739 
	C384.406555,332.044739 354.215179,332.044739 324.023834,332.044739 
	C323.915222,331.395081 323.806641,330.745422 323.698059,330.095764 
	C325.412903,329.794830 327.127136,329.235626 328.842651,329.231720 
	C353.999786,329.174408 379.157135,329.162903 404.314270,329.216614 
	C408.766907,329.226135 414.835968,327.924866 417.212830,330.245728 
	C419.554810,332.532532 418.362457,338.650116 418.366943,343.087280 
	C418.416870,392.402100 418.397949,441.717041 418.397614,491.031921 
	C418.397614,492.198151 418.624664,493.423615 418.340179,494.515808 
	C417.974213,495.920929 417.197937,497.219208 416.598389,498.563507 
	C416.039581,497.206726 415.038940,495.862976 414.998352,494.490875 
	C414.821014,488.498352 414.922394,482.497589 414.922485,475.999878 
z"/>
<path fill="#0A0A0A" opacity="1.000000" stroke="none" 
	d="
M657.076172,657.000122 
	C657.076050,649.870850 657.076050,643.241516 657.076050,636.369812 
	C646.273987,636.369812 635.961609,636.388855 625.649475,636.355957 
	C623.188416,636.348083 620.136963,636.741821 620.064819,633.087402 
	C619.986511,629.122620 623.219238,629.451843 625.852234,629.441162 
	C636.844055,629.396729 647.836853,629.492371 658.827820,629.386414 
	C663.176758,629.344543 665.132019,630.934692 665.099915,635.563049 
	C664.951294,657.046448 665.012878,678.531372 665.059326,700.015625 
	C665.065735,702.966736 664.594604,705.680603 661.079102,705.660095 
	C657.591248,705.639832 657.053406,702.902222 657.060791,699.969116 
	C657.096497,685.812866 657.076538,671.656433 657.076172,657.000122 
z"/>
<path fill="#0B0B0B" opacity="1.000000" stroke="none" 
	d="
M589.361206,674.408447 
	C590.596375,683.239502 591.739197,691.633301 592.910217,700.023193 
	C593.302368,702.833008 592.637756,705.562134 589.568115,705.466064 
	C588.028076,705.417847 585.509766,702.976196 585.241211,701.323303 
	C583.243958,689.032043 581.625061,676.676697 580.038025,664.322144 
	C578.765381,654.414917 580.617554,645.203430 587.908997,636.377380 
	C582.415833,636.377380 578.035095,636.379456 573.654419,636.376465 
	C571.221191,636.374817 568.317505,636.191040 568.854370,633.032837 
	C569.097351,631.603577 571.875854,629.635071 573.558228,629.580505 
	C583.525696,629.256836 593.513489,629.277161 603.482605,629.575623 
	C605.048462,629.622559 607.597839,631.465515 607.877991,632.846191 
	C608.530823,636.063416 605.728394,636.338318 603.269592,636.373291 
	C602.438232,636.385132 601.606567,636.374695 600.775085,636.375549 
	C592.228088,636.384644 588.533020,638.983459 588.095398,647.707642 
	C587.658386,656.419922 588.819397,665.212341 589.361206,674.408447 
z"/>
<path fill="#0A0A0A" opacity="1.000000" stroke="none" 
	d="
M437.896576,684.999207 
	C437.896698,668.015808 437.894745,651.532227 437.898590,635.048645 
	C437.899261,632.182068 437.599854,628.914917 441.786469,628.928711 
	C445.855103,628.942139 445.824829,632.132629 445.826630,635.038452 
	C445.839752,656.517029 445.825439,677.995667 445.843506,699.474243 
	C445.846039,702.481445 445.616577,705.635803 441.791504,705.649780 
	C437.876129,705.664062 437.839783,702.463379 437.880157,699.484802 
	C437.943329,694.823669 437.896667,690.161011 437.896576,684.999207 
z"/>
<path fill="#010101" opacity="1.000000" stroke="none" 
	d="
M472.309937,396.982300 
	C472.307831,400.145172 472.435608,402.820892 472.232666,405.471283 
	C472.161499,406.400787 471.277618,407.268066 470.764832,408.163757 
	C470.149414,407.209137 469.375854,406.315979 468.972717,405.278870 
	C468.691315,404.554932 468.916443,403.633789 468.916443,402.800751 
	C468.915802,379.975128 468.896973,357.149475 468.951263,334.323975 
	C468.955383,332.591400 469.478271,330.860077 469.760040,329.128174 
	C470.539917,329.161560 471.319794,329.194977 472.099670,329.228363 
	C472.170105,336.485748 472.269562,343.743042 472.303040,351.000580 
	C472.338409,358.664520 472.311005,366.328705 472.310791,373.992798 
	C472.310577,381.490265 472.310120,388.987732 472.309937,396.982300 
z"/>
<path fill="#010101" opacity="1.000000" stroke="none" 
	d="
M691.835205,352.000000 
	C692.323303,344.090363 690.821899,336.536743 692.652527,329.224243 
	C693.186035,329.182129 693.719604,329.140045 694.253113,329.097961 
	C694.566711,330.515198 695.150269,331.931824 695.153625,333.349792 
	C695.209961,357.003754 695.222717,380.657959 695.115234,404.311554 
	C695.109375,405.603607 693.965515,406.890472 693.351440,408.179749 
	C692.846436,406.777374 691.910278,405.377502 691.902039,403.972198 
	C691.800781,386.815277 691.835693,369.657532 691.835205,352.000000 
z"/>
</svg>