<?xml version="1.0" encoding="UTF-8"?>
<!DOCTYPE svg PUBLIC "-//W3C//DTD SVG 1.1//EN" "http://www.w3.org/Graphics/SVG/1.1/DTD/svg11.dtd">
<svg xmlns="http://www.w3.org/2000/svg" version="1.1" width="1027px" height="1027px" style="shape-rendering:geometricPrecision; text-rendering:geometricPrecision; image-rendering:optimizeQuality; fill-rule:evenodd; clip-rule:evenodd" xmlns:xlink="http://www.w3.org/1999/xlink">
<g><path style="opacity:0.972" fill="#fdfdfd" d="M 481.5,-0.5 C 498.5,-0.5 515.5,-0.5 532.5,-0.5C 701.301,10.1303 835.135,83.4636 934,219.5C 1022.58,351.96 1046.91,495.626 1007,650.5C 961.225,801.933 867.059,911.766 724.5,980C 598.251,1034.86 469.917,1040.2 339.5,996C 218.774,950.934 126.607,872.434 63,760.5C 24.614,689.527 3.44736,613.86 -0.5,533.5C -0.5,517.167 -0.5,500.833 -0.5,484.5C 11.9532,326.072 80.6199,198.239 205.5,101C 287.629,40.7854 379.629,6.95204 481.5,-0.5 Z"/></g>
<g><path style="opacity:1" fill="#aaaaaa" d="M 490.5,17.5 C 647.254,14.8235 778.42,70.8235 884,185.5C 979.039,296.64 1019.04,425.307 1004,571.5C 980.181,734.106 898.348,857.606 758.5,942C 639.229,1007.93 513.562,1023.93 381.5,990C 235.466,946.622 129.299,856.455 63,719.5C 7.01841,592.457 3.01841,463.791 51,333.5C 109.054,192.779 209.554,96.2787 352.5,44C 397.411,28.8047 443.411,19.9713 490.5,17.5 Z"/></g>
<g><path style="opacity:1" fill="#fefefe" d="M 484.5,26.5 C 639.095,21.7551 768.928,75.4218 874,187.5C 982.633,314.02 1019.97,459.353 986,623.5C 947.105,773.366 858.605,882.866 720.5,952C 598.538,1007.4 474.205,1013.4 347.5,970C 207.397,916.23 110.23,819.397 56,679.5C 6.26806,534.826 19.2681,396.16 95,263.5C 174.682,136.023 288.849,58.8562 437.5,32C 453.312,30.127 468.979,28.2937 484.5,26.5 Z"/></g>
<g><path style="opacity:0.132" fill="#a8a8a8" d="M 437.5,-0.5 C 452.167,-0.5 466.833,-0.5 481.5,-0.5C 379.629,6.95204 287.629,40.7854 205.5,101C 80.6199,198.239 11.9532,326.072 -0.5,484.5C -0.5,468.167 -0.5,451.833 -0.5,435.5C 28.2342,271.745 114.568,146.912 258.5,61C 307.129,34.2401 358.462,15.2401 412.5,4C 420.5,3 428.5,2 436.5,1C 437.056,0.617425 437.389,0.117425 437.5,-0.5 Z"/></g>
<g><path style="opacity:1" fill="#0d0d0d" d="M 413.5,495.5 C 413.5,440.5 413.5,385.5 413.5,330.5C 383.5,330.5 353.5,330.5 323.5,330.5C 322.596,329.791 322.263,328.791 322.5,327.5C 353.833,327.5 385.167,327.5 416.5,327.5C 416.5,383.833 416.5,440.167 416.5,496.5C 415.209,496.737 414.209,496.404 413.5,495.5 Z"/></g>
<g><path style="opacity:1" fill="#010101" d="M 468.5,327.5 C 470.491,353.479 471.158,379.812 470.5,406.5C 469.5,406.5 468.5,406.5 467.5,406.5C 467.176,380.092 467.51,353.759 468.5,327.5 Z"/></g>
<g><path style="opacity:1" fill="#161616" d="M 640.5,327.5 C 642.252,327.418 643.252,328.251 643.5,330C 640.967,342.433 638.8,354.933 637,367.5C 635.233,376.805 631.9,385.472 627,393.5C 623.133,397.846 618.633,401.346 613.5,404C 604.036,407.932 594.369,411.266 584.5,414C 604.36,441.027 624.027,468.194 643.5,495.5C 642.833,495.833 642.167,496.167 641.5,496.5C 639.795,495.455 638.295,494.122 637,492.5C 608.381,452.056 579.215,412.056 549.5,372.5C 534.805,380.53 525.971,392.864 523,409.5C 520.697,438.443 519.531,467.443 519.5,496.5C 518.167,496.5 516.833,496.5 515.5,496.5C 516.319,471.835 517.152,447.169 518,422.5C 518.672,399.477 528.838,382.143 548.5,370.5C 539.193,357.36 529.693,344.36 520,331.5C 519.517,330.552 519.351,329.552 519.5,328.5C 521.39,328.297 522.89,328.963 524,330.5C 543,356.833 562,383.167 581,409.5C 581.956,410.894 583.289,411.561 585,411.5C 596.548,409.097 607.381,404.93 617.5,399C 624.819,392.338 629.653,384.171 632,374.5C 634.84,358.792 637.673,343.125 640.5,327.5 Z"/></g>
<g><path style="opacity:1" fill="#020202" d="M 690.5,327.5 C 691.5,327.5 692.5,327.5 693.5,327.5C 693.5,353.833 693.5,380.167 693.5,406.5C 692.5,406.5 691.5,406.5 690.5,406.5C 690.5,380.167 690.5,353.833 690.5,327.5 Z"/></g>
<g><path style="opacity:1" fill="#e2e2e3" d="M 323.5,330.5 C 353.5,330.5 383.5,330.5 413.5,330.5C 413.5,385.5 413.5,440.5 413.5,495.5C 412.501,441.003 412.168,386.336 412.5,331.5C 382.662,331.831 352.995,331.498 323.5,330.5 Z"/></g>
<g><path style="opacity:0.251" fill="#a8a8a8" d="M 532.5,-0.5 C 550.833,-0.5 569.167,-0.5 587.5,-0.5C 677.101,13.2193 758.101,47.7193 830.5,103C 869.473,135.304 904.307,171.471 935,211.5C 984.047,281.247 1014.55,357.914 1026.5,441.5C 1026.5,488.5 1026.5,535.5 1026.5,582.5C 1011.3,690.641 966.629,785.307 892.5,866.5C 808.566,954.624 706.9,1007.96 587.5,1026.5C 537.5,1026.5 487.5,1026.5 437.5,1026.5C 373.342,1016.87 313.008,996.032 256.5,964C 133.598,891.127 52.0984,786.294 12,649.5C 7.17672,630.84 3.51006,611.84 1,592.5C 0.617425,591.944 0.117425,591.611 -0.5,591.5C -0.5,572.167 -0.5,552.833 -0.5,533.5C 3.44736,613.86 24.614,689.527 63,760.5C 126.607,872.434 218.774,950.934 339.5,996C 469.917,1040.2 598.251,1034.86 724.5,980C 867.059,911.766 961.225,801.933 1007,650.5C 1046.91,495.626 1022.58,351.96 934,219.5C 835.135,83.4636 701.301,10.1303 532.5,-0.5 Z"/></g>
<g><path style="opacity:1" fill="#070707" d="M 619.5,628.5 C 634.079,628.176 648.579,628.51 663,629.5C 663.667,653.833 663.667,678.167 663,702.5C 660.667,705.167 658.333,705.167 656,702.5C 655.5,679.836 655.333,657.169 655.5,634.5C 643.495,634.667 631.495,634.5 619.5,634C 618.248,632.172 618.248,630.339 619.5,628.5 Z"/></g>
<g><path style="opacity:1" fill="#080808" d="M 568.5,628.5 C 581.08,628.178 593.58,628.511 606,629.5C 606.72,631.112 606.554,632.612 605.5,634C 600.833,634.333 596.167,634.667 591.5,635C 586.3,641.635 584.466,649.135 586,657.5C 588.257,672.478 589.924,687.478 591,702.5C 588.645,705.164 586.478,704.997 584.5,702C 581.941,686.755 579.941,671.421 578.5,656C 578.369,647.93 581.036,640.93 586.5,635C 580.5,634.667 574.5,634.333 568.5,634C 567.248,632.172 567.248,630.339 568.5,628.5 Z"/></g>
<g><path style="opacity:1" fill="#0d0d0d" d="M 437.5,627.5 C 440.044,627.104 442.211,627.771 444,629.5C 444.667,653.5 444.667,677.5 444,701.5C 442.174,705.037 439.84,705.371 437,702.5C 436.186,677.457 436.352,652.457 437.5,627.5 Z"/></g>
<g><path style="opacity:1" fill="#0b0b0b" d="M 364.5,627.5 C 367.547,626.855 369.713,627.855 371,630.5C 375.734,648.368 381.068,666.035 387,683.5C 394.719,693.651 400.386,692.651 404,680.5C 406.333,663.502 408.667,646.502 411,629.5C 414.493,626.498 416.993,627.165 418.5,631.5C 416.007,646.79 413.841,662.123 412,677.5C 410.638,687.512 405.472,694.679 396.5,699C 385.39,703.638 374.223,708.138 363,712.5C 362.228,712.355 361.561,712.022 361,711.5C 360.257,709.559 360.424,707.726 361.5,706C 371.623,702.104 381.623,697.938 391.5,693.5C 384.599,690.968 379.766,686.301 377,679.5C 372.667,664.167 368.333,648.833 364,633.5C 363.322,631.402 363.489,629.402 364.5,627.5 Z"/></g>
<g><path style="opacity:1" fill="#0a0a0a" d="M 293.5,627.5 C 295.722,627.178 297.556,627.845 299,629.5C 305.92,641.004 312.586,652.671 319,664.5C 319.739,665.574 320.739,666.241 322,666.5C 326.754,665.474 330.087,662.807 332,658.5C 333.837,648.815 335.837,639.149 338,629.5C 340.333,626.833 342.667,626.833 345,629.5C 344.104,640.759 341.77,651.759 338,662.5C 334.073,666.646 329.239,668.979 323.5,669.5C 327.624,679.145 332.458,688.479 338,697.5C 338.822,699.788 339.489,702.122 340,704.5C 340.667,713.167 340.667,721.833 340,730.5C 338,731.833 336,731.833 334,730.5C 333.667,722.5 333.333,714.5 333,706.5C 332.333,704.5 331.667,702.5 331,700.5C 317.817,677.463 304.651,654.463 291.5,631.5C 291.752,629.927 292.418,628.594 293.5,627.5 Z"/></g>
<g><path style="opacity:1" fill="#0a0a0a" d="M 695.5,626.5 C 703.185,625.736 710.519,626.902 717.5,630C 720.04,632.205 722.207,634.705 724,637.5C 725.166,657.133 726,676.799 726.5,696.5C 732.158,695.679 733.825,697.846 731.5,703C 714.5,703.667 697.5,703.667 680.5,703C 677.833,701 677.833,699 680.5,697C 693.846,696.833 707.179,696.333 720.5,695.5C 719.225,692.627 718.392,689.627 718,686.5C 717.667,671.5 717.333,656.5 717,641.5C 715.833,637.667 713.333,635.167 709.5,634C 700.794,633.458 692.127,633.458 683.5,634C 680.833,632 680.833,630 683.5,628C 687.688,627.824 691.688,627.324 695.5,626.5 Z"/></g>
<g><path style="opacity:1" fill="#0f0f0f" d="M 506.5,608.5 C 508.262,608.357 509.929,608.691 511.5,609.5C 512.496,615.463 512.829,621.463 512.5,627.5C 525.837,627.333 539.171,627.5 552.5,628C 553.416,628.374 554.25,628.874 555,629.5C 555.667,634.5 555.667,639.5 555,644.5C 548,659.833 541,675.167 534,690.5C 532.927,694.084 532.26,697.75 532,701.5C 527.822,704.75 525.655,703.75 525.5,698.5C 525.86,694.727 526.693,691.061 528,687.5C 535.462,670.277 542.629,652.943 549.5,635.5C 535.178,634.667 520.845,634.167 506.5,634C 506,633.5 505.5,633 505,632.5C 504.333,625.167 504.333,617.833 505,610.5C 505.717,609.956 506.217,609.289 506.5,608.5 Z"/></g>
</svg>
